<?xml version="1.0" encoding="utf-8"?>
<!-- Generator: Adobe Illustrator 16.0.0, SVG Export Plug-In . SVG Version: 6.00 Build 0)  -->
<!DOCTYPE svg PUBLIC "-//W3C//DTD SVG 1.1//EN" "http://www.w3.org/Graphics/SVG/1.1/DTD/svg11.dtd">
<svg version="1.1" id="レイヤー_1" xmlns="http://www.w3.org/2000/svg" xmlns:xlink="http://www.w3.org/1999/xlink" x="0px"
	 y="0px" width="670px" height="162px" viewBox="0 0 670 162" enable-background="new 0 0 670 162" xml:space="preserve">
<g>
	<path fill="#FFFFFF" d="M217.047,110.536l-0.002-0.253c-0.261-25.126,18.338-45.901,45.105-46.179
		c13.636-0.143,22.642,3.805,30.406,9.659c1.654,1.245,3.064,3.377,3.093,6.154c0.045,4.293-3.329,7.61-7.623,7.655
		c-2.146,0.023-3.669-0.721-4.687-1.467c-6.111-4.86-12.709-7.821-21.167-7.734c-16.792,0.174-29.021,14.191-28.842,31.486
		l0.003,0.254c0.179,17.299,12.572,31.186,29.491,31.011c9.342-0.099,15.625-3.194,22.006-8.688
		c1.126-1.021,2.759-1.797,4.654-1.815c3.914-0.042,7.356,3.206,7.397,7.121c0.025,2.397-1.091,4.305-2.467,5.582
		c-8.257,7.407-17.68,12.054-31.946,12.2C236.711,155.788,217.311,135.912,217.047,110.536z"/>
	<path fill="#FFFFFF" d="M305.17,143.692c-1.78-1.243-3.066-3.377-3.092-5.902c-0.042-4.039,3.208-7.23,7.248-7.271
		c2.146-0.022,3.542,0.592,4.56,1.342c7.384,5.73,15.246,8.934,24.841,8.832c9.596-0.101,15.605-4.707,15.539-11.271l-0.002-0.253
		c-0.064-6.312-3.635-9.688-20.088-13.303c-18.86-4.352-29.524-9.794-29.692-26.083l-0.003-0.255
		c-0.157-15.149,12.36-25.76,29.91-25.941c11.109-0.113,20.104,2.695,28.113,7.916c1.777,0.991,3.441,3.121,3.475,6.151
		c0.043,4.041-3.207,7.229-7.248,7.271c-1.516,0.018-2.783-0.349-4.053-1.093c-6.863-4.348-13.453-6.553-20.396-6.48
		c-9.09,0.096-14.344,4.821-14.284,10.626L320,88.231c0.071,6.818,4.143,9.809,21.229,13.67
		c18.732,4.352,28.398,10.943,28.551,25.59l0.004,0.253c0.17,16.541-12.73,26.524-31.291,26.716
		C326.496,154.584,315.094,150.913,305.17,143.692z"/>
	<path fill="#FFFFFF" d="M376.398,142.933c-1.779-1.246-3.064-3.377-3.092-5.9c-0.041-4.04,3.209-7.232,7.248-7.271
		c2.146-0.023,3.541,0.594,4.561,1.34c7.385,5.732,15.246,8.935,24.84,8.834c9.6-0.099,15.611-4.705,15.543-11.271l-0.004-0.253
		c-0.062-6.312-3.635-9.685-20.09-13.302c-18.859-4.353-29.521-9.797-29.691-26.084l-0.002-0.252
		c-0.156-15.151,12.359-25.763,29.91-25.943c11.111-0.115,20.105,2.695,28.113,7.916c1.779,0.991,3.441,3.122,3.475,6.151
		c0.043,4.041-3.207,7.229-7.25,7.271c-1.514,0.019-2.779-0.351-4.051-1.094c-6.863-4.348-13.453-6.553-20.395-6.479
		c-9.094,0.094-14.348,4.819-14.285,10.626l0.002,0.252c0.07,6.817,4.143,9.81,21.229,13.67c18.732,4.354,28.4,10.942,28.551,25.59
		l0.004,0.252c0.172,16.541-12.73,26.524-31.291,26.719C397.725,153.823,386.324,150.151,376.398,142.933z"/>
</g>
<g>
	<path fill="#E8EF5B" d="M579.158,117.088c-2.002,4.753-4.322,9.033-6.801,13.315c-2.945,4.76-5.896,9.365-9.32,13.502
		c-2.801,3.654-6.695,8.269-11.416,9.104c-5.352,1-9.654-3.367-11.438-8.078c-3.879-9.267-1.303-19.065,1.443-28.084
		c0,0-0.018-1.42,0.129-2.523c-1.551,2.383-3.729,5.24-5.123,7.466c-1.859,3.017-3.25,6.022-5.271,8.884
		c-0.932,1.43-13.697,17.174-15.459,14.514c0,0,1.885-0.812,1.723-1.123c-1.879,1.278-4.396,1.621-6.609,1.014
		c0.477,0.311,0.793,0.465,0.637,0.468c-3.623,0.511-6.521-5.137-7.336-7.649c-1.307-4.401-1.041-9.295-0.299-13.719
		c1.639-9.158,5.318-19.133,10.6-27.072c1.402-1.904,2.797-4.127,4.832-5.566c1.246-1.118,2.35-1.286,3.758-2.248
		c2.346-2.073,4.377-3.83,7.846-3.863c7.727-0.082,10.973,8.715,12.609,14.689c3.732-4.928,10.447-11.462,16.352-4.428
		c3.193,3.75,1.174,6.608-0.523,10.098c-2.938,5.552-5.232,12.354-6.436,18.042c0.152-0.476,0.604-2.847,1.23-3.011
		c1.256-0.325-9.725,35.424,6.307,15.231c4.822-6.2,9.016-12.707,13.203-19.218c1.861-3.016-0.248-0.234,1.771-3.252
		c0.936-1.27,3.738-4.296,3.934-0.827C579.85,116.371,580.385,114.079,579.158,117.088z M538.988,105.835
		c-0.014-1.259-3.256-9.896-2.475-10.537c0.154-0.158,1.625,4.396,1.781,4.713c-0.49-1.887-1.186-7.716-4.02-7.687
		c-5.199,0.054-9.045,9.714-10.74,13.358c-3.082,7.125-5.84,14.725-7.02,22.463c0.447-2.371,9.297-31.002,12.133-30.875
		c-2.201,0.498-10.305,24.862-10.756,27.078c-0.299,1.262-2.738,9.485-0.365,10.25c1.58,0.459,5.312-4.471,6.092-5.58
		c2.959-3.658,5.758-7.474,8.396-11.44l4.039-5.876c0.615-1.111,1.395-2.223,2.174-3.335
		C539.004,107.097,539.004,107.097,538.988,105.835z M539.449,104.728l0.016,1.578C539.934,105.826,539.926,105.353,539.449,104.728
		z M543.312,112.256l-0.777,1.113c-0.15,0.476-0.604,2.688-0.604,2.688L543.312,112.256z"/>
</g>
<g>
	<path fill="#E8EF5B" d="M589.461,146.687c-0.324,1.86-1.057,3.367-2.188,4.506c-1.135,1.143-2.293,1.617-3.479,1.422
		c-3.936-0.646-4.4-9.498-1.402-26.549c1.363-7.75,3.453-19.368,6.271-34.854s4.91-27.103,6.273-34.854
		c0.219-1.239,0.438-3.064,0.672-5.472c0.229-2.407,0.445-4.177,0.645-5.315c2.461-1.932,4.283-2.806,5.473-2.611
		c1.373,0.226,2.551,1.195,3.539,2.896c0.982,1.705,1.273,3.694,0.879,5.966c-0.203,1.138-0.596,2.453-1.182,3.953
		c-0.873,2.408-1.355,3.71-1.455,3.907c-1.939,6.275-3.945,15.302-6.02,27.082c-3.283,18.707-4.975,28.313-5.064,28.832
		c-2.102,13.053-3.047,22.256-2.83,27.604C589.65,144.7,589.607,145.862,589.461,146.687z"/>
</g>
<g>
	<path fill="#E8EF5B" d="M605.938,146.258c-0.48,1.827-1.334,3.267-2.559,4.308c-1.227,1.043-3.926,1.42-5.088,1.127
		c-3.867-0.971-2.09-9.832,2.318-26.571c2.037-7.728,5.043-18.957,9.16-34.209c4.1-15.197,7.152-26.601,9.156-34.209
		c0.32-1.215,0.693-3.015,1.129-5.397c0.432-2.378,0.793-4.124,1.086-5.241c2.609-1.721,4.502-2.439,5.67-2.146
		c1.35,0.339,2.439,1.403,3.281,3.182c0.842,1.781,0.967,3.788,0.379,6.02c-0.297,1.116-0.797,2.395-1.506,3.839
		c-1.068,2.327-1.662,3.583-1.775,3.771c-2.455,6.092-5.207,14.919-8.254,26.483c-4.836,18.367-7.318,27.802-7.455,28.312
		c-3.184,12.83-4.895,21.923-5.123,27.271C606.291,144.294,606.152,145.449,605.938,146.258z"/>
</g>
<path fill="#E8EF5B" d="M479.947,159.104c-3.977-1.373,3.521-25.635,3.521-25.635c2.75-12.685,4.885-22.646,7.225-34.215
	c2.209-11.471,4.078-22.782,7.535-34.545c-1.939,0.703-3.9,1.289-5.859,1.875c-1.486,0.502-2.439,1.275-3.912,1.895
	c-2.346,1.143-5.051,1.615-7.578,2.419c-2.881,0.871-5.762,1.738-8.844,1.432c-2.971-0.332-8.26-3.526-4.512-6.366
	c1.17-0.932,3.131-1.52,4.285-1.843c5.482-1.929,10.83-3.957,16.414-5.299c2.312-0.649,4.271-1.232,6.424-2.095
	c1.113-0.558,2.25-1.001,3.406-1.323c1.035-0.302,4.58-0.302,5.418-1.057c1.363-1.208-0.467-3.206,0.191-4.29
	c1.225-2.035,4.793-2.417,6.896-2.179c2.242,0.336,2.877,1.195,4.518,2.241c0.828,0.583-0.271,0.533,0.852,0.702
	c0.727-0.008,1.625-0.408,2.191-0.627c1.41-0.248,2.807-0.612,4.195-0.978c5.605-1.226,11.23-2.33,16.945-2.967
	c0.605,0.015,1.33,0.01,1.922-0.094c0.213-0.159,0.207-0.883,0.814-0.871c0.611,0.015,1.025,0.307,1.246,0.874
	c0.607,2.077-3.568,3.171-4.822,3.635c-2.033,0.839-4.898,1.098-6.775,2.155c-0.117,0.021-0.35,0.79-0.68,0.966
	c-0.43,0.318-0.994,0.542-1.447,0.74c-1.469,0.62-2.957,1.125-4.324,1.606l-8.225,2.894c-1.959,0.585-5.479,0.596-6.162,2.9
	c-0.154,0.512,0.088,1.198,0.068,1.807c-0.223,1.494-0.938,2.951-1.418,4.371l-2.9,9.724c-1.518,4.512-2.264,9.249-3.402,13.813
	c-0.627,2.656-1.607,5.375-1.857,8.088c-0.121,2.08-0.125,4.144-0.576,6.404c-2.234,10.096-5.197,20.191-7.037,30.457
	C492.289,143,491.416,158.956,479.947,159.104 M510.996,62.897c-2.221,4.185-5.566,10.284-6.922,14.741
	c-1.646,5.09-5.359,19.511-7.127,25.809c1.744-5.337,6.23-19.235,7.689-22.621C506.938,75.07,508.457,68.674,510.996,62.897z"/>
<path fill="#E8EF5B" d="M603.387,126.567c0.309-0.635,2.795-4.129,2.795-3.975c0.93-1.742,2.014-3.488,3.102-5.076
	c-0.154,0.157-3.113,3.815-3.113,3.815c-0.336-1.89,3.094-5.866,4.182-7.454c1.705-2.854,3.725-5.557,5.59-8.414
	c4.199-5.722,8.713-11.285,14.023-16.072c5.469-4.942,15.631-13.249,22.947-7.177c7.318,6.229,2.666,14.009-2.795,19.583
	c-4.994,4.938-11.102,8.945-17.217,12.319c-3.293,1.927-6.584,3.694-10.037,5.149c-0.627,0.32-2.986,0.978-3.297,1.295
	c0,0.156,0.664,3.307,0.191,3.467c-0.156,0-0.479-0.469-0.639-0.938c1,5.511,2.959,11.64,6.627,15.698
	c-0.963-1.562-4.664-8.622-4.84-10.199c0.496,2.049,5.955,11.607,8.166,11.9c0.633,0.148,1.104-0.014,1.578-0.016
	c5.043-0.369,9.086-5.613,12.684-8.49c3.6-2.719,8.299-5.604,11.268-8.635c-0.314,0.32-0.787,0.325-1.104,0.33
	c-0.48-0.785,9.648-12.242,10.428-13.039c1.406-1.275,3.447-2.088,3.639,0.752v0.156c0.355,4.098-2.771,6.336-5.109,9.042
	c-2.178,2.861-4.354,5.878-7.006,8.589c-3.119,3.342-5.92,6.996-9.52,9.717c-0.312,0.317-7.365,4.332-7.832,4.97l-0.004-0.316
	c-1.25,0.96,0.789-0.007-1.09,1.589c-1.561,1.278-3.287,1.93-5.016,2.733c-2.041,0.808-3.918,2.403-6.121,2.585
	c-1.105,0.013-7.912-2.282-6.977-3.711c0.15-0.316,0.633,0.311,0.787,0.148c-0.791-0.465-1.432-1.09-2.068-1.871
	c0.002,0.158,0.164,0.474,0.164,0.627c-0.312,0.32-4.951-5.938-5.271-6.725c-1.605-2.822-2.906-6.591-3.574-9.896l-7.436,12.693
	 M638.432,100.026c1.248-1.432,10.129-11.772,7.586-13.639c-2.701-1.865-10.492,7.201-11.895,8.797
	c-6.084,6.526-11.369,13.678-16.498,20.982C625.635,112.933,632.662,106.396,638.432,100.026z"/>
<path fill="#E8EF5B" d="M81.75,55.696l8.668,8.668V29.25h29.362c0,0,3.833,0.583,6.917-1.667
	c2.25-1.833,10.185-16.596,10.185-16.596l10.248,13.226c0,0,3.818,4.787,8.651,5.12c4.75,0.25,27.083,0,27.083,0v54.25h-68.417
	c0,0-2.693,0.195-3.263,0.848c1.475,1.439,8.434,8.232,8.434,8.232h62.33c0,0,9.417,0.587,10.25-7.496c0-7.501,0-57.083,0-57.083
	s0.917-6.25-6.5-7.5c-7.333,0-28.25,0-28.25,0s-2.75,0.333-4.583-2.917c-2.167-3.417-10.583-14.75-10.583-14.75S139.947,0,136.53,0
	c-3.5,0-5.25,2.833-5.5,3.25c-0.833,1.25-8.363,16.073-8.363,16.073s-0.387,1.26-2.887,1.26s-29.417,0-29.417,0
	s-8.614,0.917-8.614,7.25C81.75,33.083,81.75,55.696,81.75,55.696z"/>
<path fill="#FFFFFF" d="M110.483,99.828l-8.668-8.668v35.115H72.453c0,0-3.833-0.584-6.917,1.666
	c-2.25,1.834-10.185,16.596-10.185,16.596l-10.248-13.226c0,0-3.818-4.787-8.651-5.12c-4.75-0.25-27.083,0-27.083,0v-54.25h68.417
	c0,0,2.693-0.195,3.263-0.848c-1.475-1.438-8.434-8.231-8.434-8.231h-62.33c0,0-9.417-0.588-10.25,7.496c0,7.501,0,57.083,0,57.083
	s-0.917,6.25,6.5,7.5c7.333,0,28.25,0,28.25,0s2.75-0.333,4.583,2.917c2.167,3.417,10.583,14.75,10.583,14.75
	s2.333,2.917,5.75,2.917c3.5,0,5.25-2.834,5.5-3.25c0.833-1.25,8.363-16.073,8.363-16.073s0.387-1.26,2.887-1.26s29.417,0,29.417,0
	s8.614-0.917,8.614-7.25C110.483,122.442,110.483,99.828,110.483,99.828z"/>
</svg>
